<svg width="50" height="50" viewBox="0 0 50 50" fill="none" xmlns="http://www.w3.org/2000/svg">
<path d="M47.6961 48.7547L43.9601 13.9477C43.8979 13.3873 43.3997 12.9514 42.8393 12.9514H35.9278V10.8344C35.9278 4.85679 31.071 0 25.0934 0C19.1158 0 14.259 4.85679 14.259 10.8344V12.9514H7.16064C6.60024 12.9514 6.10211 13.3873 6.03985 13.9477L2.30386 48.7547C2.24159 49.066 2.36612 49.3773 2.55292 49.6264C2.73972 49.8755 3.05105 50 3.36239 50H46.6376C46.9489 50 47.2603 49.8755 47.4471 49.6264C47.6339 49.3773 47.7584 49.066 47.6961 48.7547ZM34.807 19.2403C35.3674 19.2403 35.8032 19.6762 35.8032 20.2366C35.8032 20.797 35.3674 21.2329 34.807 21.2329C34.2466 21.2329 33.8107 20.797 33.8107 20.2366C33.8107 19.6762 34.2466 19.2403 34.807 19.2403ZM16.5006 10.8344C16.5006 6.10212 20.3611 2.24159 25.0934 2.24159C29.8256 2.24159 33.6862 6.10212 33.6862 10.8344V12.9514H16.5006V10.8344ZM15.3798 19.2403C15.9402 19.2403 16.3761 19.6762 16.3761 20.2366C16.3761 20.797 15.9402 21.2329 15.3798 21.2329C14.8194 21.2329 14.3836 20.797 14.3836 20.2366C14.3836 19.6762 14.8194 19.2403 15.3798 19.2403ZM4.66998 47.6961L8.15691 15.1308H14.259V17.1856C13.0137 17.6214 12.142 18.8045 12.142 20.1743C12.142 21.9178 13.5741 23.3499 15.3176 23.3499C17.061 23.3499 18.4931 21.9178 18.4931 20.1743C18.4931 18.8045 17.6214 17.6214 16.3761 17.1856V15.1308H33.5616V17.1856C32.3163 17.6214 31.4446 18.8045 31.4446 20.1743C31.4446 21.9178 32.8767 23.3499 34.6202 23.3499C36.3636 23.3499 37.7958 21.9178 37.7958 20.1743C37.7958 18.8045 36.924 17.6214 35.6787 17.1856V15.1308H42.0299L45.5168 47.6961H4.66998Z" fill="#FE0002"/>
</svg>
