<svg width="50" height="50" viewBox="0 0 50 50" fill="none" xmlns="http://www.w3.org/2000/svg">
<path d="M46.4844 13.2812H32.6104L31.1191 8.36719C31.0704 8.20675 30.9714 8.06623 30.8367 7.96636C30.702 7.86648 30.5388 7.81254 30.3711 7.8125H19.5312C19.3615 7.81253 19.1965 7.86783 19.061 7.97002C18.9255 8.07221 18.8269 8.21574 18.7803 8.37891L17.3799 13.2812H12.5V11.7188C12.5 11.5115 12.4177 11.3128 12.2712 11.1663C12.1247 11.0198 11.926 10.9375 11.7188 10.9375H10.9375V9.375C10.9375 9.1678 10.8552 8.96909 10.7087 8.82257C10.5622 8.67606 10.3635 8.59375 10.1562 8.59375H7.03125C6.82405 8.59375 6.62534 8.67606 6.47882 8.82257C6.33231 8.96909 6.25 9.1678 6.25 9.375V10.9375H5.46875C5.26155 10.9375 5.06284 11.0198 4.91632 11.1663C4.76981 11.3128 4.6875 11.5115 4.6875 11.7188V13.2812H3.51562C2.79067 13.2821 2.09564 13.5704 1.58301 14.083C1.07039 14.5956 0.782051 15.2907 0.78125 16.0156V40.2344C0.782051 40.9593 1.07039 41.6544 1.58301 42.167C2.09564 42.6796 2.79067 42.9679 3.51562 42.9688H46.4844C47.2093 42.9679 47.9044 42.6796 48.417 42.167C48.9296 41.6544 49.2179 40.9593 49.2188 40.2344V16.0156C49.2179 15.2907 48.9296 14.5956 48.417 14.083C47.9044 13.5704 47.2093 13.2821 46.4844 13.2812ZM20.1201 9.375H29.792L30.9775 13.2812H19.0049L20.1201 9.375ZM7.8125 10.1562H9.375V10.9375H7.8125V10.1562ZM6.25 12.5H10.9375V13.2812H6.25V12.5ZM47.6562 40.2344C47.656 40.5451 47.5324 40.843 47.3127 41.0627C47.093 41.2824 46.7951 41.406 46.4844 41.4062H3.51562C3.2049 41.406 2.90698 41.2824 2.68727 41.0627C2.46756 40.843 2.34401 40.5451 2.34375 40.2344V16.0156C2.34401 15.7049 2.46756 15.407 2.68727 15.1873C2.90698 14.9676 3.2049 14.844 3.51562 14.8438H46.4844C46.7951 14.844 47.093 14.9676 47.3127 15.1873C47.5324 15.407 47.656 15.7049 47.6562 16.0156V40.2344Z" fill="#FE0002"/>
<path d="M25 16.4062C22.6822 16.4062 20.4166 17.0935 18.4894 18.3812C16.5623 19.6689 15.0603 21.4991 14.1733 23.6404C13.2863 25.7818 13.0543 28.138 13.5064 30.4112C13.9586 32.6844 15.0747 34.7725 16.7136 36.4114C18.3525 38.0503 20.4406 39.1664 22.7138 39.6186C24.987 40.0708 27.3432 39.8387 29.4846 38.9517C31.6259 38.0648 33.4561 36.5627 34.7438 34.6356C36.0314 32.7085 36.7187 30.4428 36.7187 28.125C36.7152 25.0181 35.4794 22.0394 33.2825 19.8425C31.0856 17.6455 28.1069 16.4098 25 16.4062ZM25 38.2813C22.9913 38.2813 21.0277 37.6856 19.3575 36.5696C17.6873 35.4536 16.3856 33.8674 15.6169 32.0116C14.8482 30.1558 14.647 28.1137 15.0389 26.1436C15.4308 24.1735 16.3981 22.3638 17.8184 20.9434C19.2388 19.5231 21.0485 18.5558 23.0186 18.1639C24.9887 17.772 27.0308 17.9731 28.8866 18.7418C30.7424 19.5106 32.3286 20.8123 33.4446 22.4825C34.5606 24.1527 35.1562 26.1163 35.1562 28.125C35.1532 30.8177 34.0822 33.3992 32.1782 35.3032C30.2742 37.2072 27.6927 38.2782 25 38.2813Z" fill="#FE0002"/>
<path d="M25 19.5312C23.3003 19.5312 21.6388 20.0353 20.2256 20.9796C18.8123 21.9238 17.7109 23.266 17.0604 24.8363C16.41 26.4066 16.2398 28.1345 16.5714 29.8015C16.903 31.4686 17.7214 32.9998 18.9233 34.2017C20.1252 35.4035 21.6564 36.222 23.3234 36.5536C24.9905 36.8852 26.7184 36.715 28.2887 36.0646C29.859 35.4141 31.2012 34.3127 32.1454 32.8994C33.0897 31.4862 33.5938 29.8247 33.5938 28.125C33.5912 25.8466 32.6849 23.6622 31.0738 22.0512C29.4628 20.4401 27.2784 19.5338 25 19.5312ZM25 35.1562C23.6094 35.1562 22.2499 34.7439 21.0937 33.9713C19.9374 33.1987 19.0362 32.1005 18.504 30.8157C17.9718 29.5309 17.8326 28.1172 18.1039 26.7533C18.3752 25.3893 19.0448 24.1365 20.0282 23.1532C21.0115 22.1698 22.2643 21.5002 23.6283 21.2289C24.9922 20.9575 26.406 21.0968 27.6907 21.629C28.9755 22.1611 30.0737 23.0624 30.8463 24.2186C31.6189 25.3749 32.0313 26.7343 32.0313 28.125C32.0292 29.9892 31.2877 31.7764 29.9695 33.0945C28.6514 34.4127 26.8642 35.1541 25 35.1562Z" fill="#FE0002"/>
<path d="M45.3125 16.4062H39.0625C38.8553 16.4062 38.6566 16.4886 38.5101 16.6351C38.3636 16.7816 38.2812 16.9803 38.2812 17.1875V20.3125C38.2812 20.5197 38.3636 20.7184 38.5101 20.8649C38.6566 21.0114 38.8553 21.0938 39.0625 21.0938H45.3125C45.5197 21.0938 45.7184 21.0114 45.8649 20.8649C46.0114 20.7184 46.0938 20.5197 46.0938 20.3125V17.1875C46.0938 16.9803 46.0114 16.7816 45.8649 16.6351C45.7184 16.4886 45.5197 16.4062 45.3125 16.4062ZM44.5312 19.5312H39.8438V17.9688H44.5312V19.5312Z" fill="#FE0002"/>
<path d="M11.7187 35.1562C11.2552 35.1562 10.8021 35.2937 10.4166 35.5512C10.0312 35.8088 9.7308 36.1748 9.55341 36.6031C9.37602 37.0314 9.3296 37.5026 9.42004 37.9572C9.51047 38.4119 9.73369 38.8295 10.0615 39.1573C10.3892 39.4851 10.8069 39.7083 11.2615 39.7987C11.7162 39.8892 12.1874 39.8427 12.6157 39.6653C13.0439 39.488 13.41 39.1876 13.6675 38.8021C13.925 38.4167 14.0625 37.9636 14.0625 37.5C14.0618 36.8786 13.8146 36.2829 13.3753 35.8435C12.9359 35.4041 12.3401 35.1569 11.7187 35.1562ZM11.7187 38.2813C11.5642 38.2813 11.4132 38.2354 11.2847 38.1496C11.1562 38.0637 11.0561 37.9417 10.997 37.799C10.9378 37.6562 10.9224 37.4991 10.9525 37.3476C10.9827 37.196 11.0571 37.0568 11.1663 36.9476C11.2756 36.8383 11.4148 36.7639 11.5663 36.7338C11.7179 36.7036 11.875 36.7191 12.0177 36.7782C12.1605 36.8374 12.2825 36.9375 12.3683 37.066C12.4542 37.1944 12.5 37.3455 12.5 37.5C12.4998 37.7071 12.4174 37.9057 12.2709 38.0522C12.1245 38.1986 11.9259 38.281 11.7187 38.2813Z" fill="#FE0002"/>
</svg>
