<svg width="50" height="50" viewBox="0 0 50 50" fill="none" xmlns="http://www.w3.org/2000/svg">
<g clip-path="url(#clip0)">
<path d="M46.9191 48.5352H46.0859V45.3534C46.0859 44.5179 45.4062 43.8382 44.5707 43.8382H27.2979V37.5251C27.2979 37.1206 26.97 36.7927 26.5655 36.7927C26.161 36.7927 25.8331 37.1206 25.8331 37.5251V43.8382H24.1668V37.5251C24.1668 37.1206 23.8388 36.7927 23.4344 36.7927C23.0299 36.7927 22.7019 37.1206 22.7019 37.5251V43.8382H10.126C9.72156 43.8382 9.39363 44.1661 9.39363 44.5706C9.39363 44.9751 9.72156 45.3031 10.126 45.3031H44.5706C44.5984 45.3031 44.621 45.3256 44.621 45.3534V48.5352H5.37898V45.3534C5.37898 45.3256 5.40154 45.3031 5.42937 45.3031H6.99529C7.39978 45.3031 7.72771 44.9751 7.72771 44.5706C7.72771 44.1661 7.39978 43.8382 6.99529 43.8382H5.42937C4.59382 43.8382 3.91414 44.5179 3.91414 45.3534V48.5352H3.08093C2.67644 48.5352 2.34851 48.8631 2.34851 49.2676C2.34851 49.6721 2.67644 50 3.08093 50H46.9191C47.3236 50 47.6515 49.6721 47.6515 49.2676C47.6515 48.8631 47.3236 48.5352 46.9191 48.5352Z" fill="#FE0002"/>
<path d="M48.2879 34.7372L45.9395 31.606C45.8011 31.4215 45.5841 31.313 45.3535 31.313C43.9626 31.313 43.0624 32.1003 42.339 32.7328C41.9751 33.051 41.6799 33.3007 41.389 33.4607V25.7324H45.3535C46.1891 25.7324 46.8688 25.0527 46.8688 24.2172V21.0859C46.8688 20.2504 46.1891 19.5707 45.3535 19.5707H44.7831C43.4906 18.7414 35.089 13.1704 26.9481 3.51523C27.1695 3.16201 27.2982 2.74492 27.2982 2.29814C27.2981 1.03096 26.2672 0 25 0C23.7328 0 22.702 1.03096 22.702 2.29805C22.702 2.74482 22.8306 3.16201 23.0521 3.51523C14.9193 13.1604 6.50959 18.7404 5.21682 19.5706H4.6466C3.81105 19.5706 3.13137 20.2503 3.13137 21.0858V24.2171C3.13137 25.0526 3.81105 25.7323 4.6466 25.7323H8.61115V33.6613H3.86369C2.5965 33.6613 1.56564 34.6923 1.56564 35.9594C1.56564 36.3639 1.89357 36.6918 2.29807 36.6918C2.70256 36.6918 3.03049 36.3639 3.03049 35.9594C3.03049 35.4999 3.40432 35.1262 3.86369 35.1262H4.85392C4.75295 35.3847 4.69689 35.6655 4.69689 35.9594V38.8946C4.10754 39.557 3.65422 40.3484 3.39162 41.2301C3.27619 41.6178 3.4968 42.0256 3.88449 42.1411C3.95422 42.1619 4.02463 42.1718 4.09387 42.1718C4.40939 42.1718 4.7008 41.9662 4.79553 41.6482C5.39015 39.6519 7.26027 38.2575 9.34338 38.2575C11.4265 38.2575 13.2966 39.6519 13.8913 41.6483C14.0069 42.036 14.4144 42.2566 14.8024 42.1412C15.1901 42.0257 15.4107 41.6179 15.2952 41.2302C15.0326 40.3485 14.5793 39.5571 13.99 38.8947V35.9595C13.99 35.9316 14.0125 35.9091 14.0403 35.9091H16.3888C16.6662 35.9091 16.9198 35.7523 17.0439 35.5042C17.168 35.2561 17.1412 34.9591 16.9747 34.7372L14.6263 31.606C14.4879 31.4215 14.2709 31.313 14.0403 31.313C12.6494 31.313 11.7492 32.1003 11.0258 32.7328C10.6619 33.0511 10.3667 33.3007 10.0757 33.4608V25.7324H24.2676V29.7474H19.5202C18.253 29.7474 17.2222 30.7783 17.2222 32.0454C17.2222 32.4499 17.5501 32.7778 17.9546 32.7778C18.3591 32.7778 18.687 32.4499 18.687 32.0454C18.687 31.5859 19.0609 31.2122 19.5202 31.2122H20.5105C20.4095 31.4707 20.3534 31.7516 20.3534 32.0454V34.9806C19.7641 35.643 19.3108 36.4344 19.0482 37.3161C18.9326 37.7038 19.1533 38.1116 19.541 38.2272C19.9285 38.3427 20.3365 38.122 20.4521 37.7343C21.0467 35.7378 22.9169 34.3435 25 34.3435C27.0831 34.3435 28.9532 35.7378 29.548 37.7343C29.6427 38.0522 29.934 38.2578 30.2496 38.2578C30.3188 38.2578 30.3893 38.2479 30.459 38.2272C30.8467 38.1116 31.0673 37.7038 30.9519 37.3161C30.6893 36.4344 30.236 35.643 29.6466 34.9806V32.0454C29.6466 32.0176 29.6692 31.995 29.697 31.995H32.0454C32.3229 31.995 32.5765 31.8383 32.7005 31.5901C32.8246 31.342 32.7979 31.045 32.6314 30.8231L30.2829 27.6919C30.1445 27.5074 29.9276 27.3989 29.697 27.3989C28.3061 27.3989 27.4059 28.1862 26.6824 28.8188C26.3186 29.1369 26.0234 29.3866 25.7324 29.5467V25.7324H39.9241V33.6614H35.1768C33.9096 33.6614 32.8787 34.6924 32.8787 35.9595C32.8787 36.364 33.2067 36.6919 33.6112 36.6919C34.0156 36.6919 34.3436 36.364 34.3436 35.9595C34.3436 35.5 34.7174 35.1263 35.1768 35.1263H36.167C36.066 35.3848 36.01 35.6656 36.01 35.9595V38.8947C35.4206 39.5571 34.9673 40.3485 34.7047 41.2302C34.5893 41.6179 34.8099 42.0257 35.1976 42.1412C35.5851 42.2566 35.9931 42.0359 36.1086 41.6483C36.7032 39.6519 38.5735 38.2575 40.6566 38.2575C42.7397 38.2575 44.6098 39.6519 45.2044 41.6482C45.2991 41.9662 45.5904 42.1718 45.9061 42.1718C45.9752 42.1718 46.0457 42.1619 46.1154 42.1411C46.5031 42.0256 46.7237 41.6178 46.6083 41.2301C46.3457 40.3484 45.8924 39.5569 45.303 38.8946V35.9594C45.303 35.9315 45.3256 35.909 45.3534 35.909H47.7019C47.9793 35.909 48.2329 35.7523 48.3569 35.5041C48.4811 35.2562 48.4543 34.9592 48.2879 34.7372ZM11.9903 33.8356C12.5464 33.3492 13.0377 32.9196 13.6959 32.8067L14.9241 34.4443H14.0405C13.205 34.4443 12.5253 35.124 12.5253 35.9596V37.6814C11.5821 37.1152 10.4877 36.7929 9.34357 36.7929C8.19943 36.7929 7.105 37.1153 6.16183 37.6814V35.9596C6.16183 35.5001 6.53566 35.1264 6.99504 35.1264H9.34348C10.5142 35.1263 11.2984 34.4405 11.9903 33.8356ZM27.6467 29.9214C28.2028 29.4351 28.6942 29.0055 29.3524 28.8926L30.5806 30.5302H29.697C28.8614 30.5302 28.1818 31.2099 28.1818 32.0454V33.7672C27.2386 33.201 26.1442 32.8786 25 32.8786C23.8559 32.8786 22.7614 33.201 21.8183 33.7672V32.0454C21.8183 31.5859 22.1921 31.2122 22.6515 31.2122H25C26.1706 31.2122 26.9548 30.5264 27.6467 29.9214ZM17.0365 19.5706C18.4225 17.5572 21.298 13.0072 24.2676 6.0543V19.5706H17.0365ZM25.7324 6.05469C28.702 13.0074 31.5775 17.5573 32.9633 19.5706H25.7324V6.05469ZM25 1.46484C25.4595 1.46484 25.8332 1.83867 25.8332 2.29805C25.8332 2.75742 25.4594 3.13125 25 3.13125C24.5406 3.13125 24.1668 2.75742 24.1668 2.29805C24.1668 1.83867 24.5405 1.46484 25 1.46484ZM22.5537 6.32354C19.2372 13.8768 16.0688 18.4329 15.2385 19.5707H7.82033C10.783 17.4706 16.6192 12.9681 22.5537 6.32354ZM4.59611 24.2172V21.0859C4.59611 21.0581 4.61867 21.0355 4.6465 21.0355H36.7422C37.1467 21.0355 37.4746 20.7076 37.4746 20.3031C37.4746 19.8986 37.1467 19.5707 36.7422 19.5707H34.7613C33.9307 18.4324 30.7623 13.8762 27.4458 6.32305C33.3804 12.9678 39.2167 17.4706 42.1796 19.5707H39.8739C39.4694 19.5707 39.1415 19.8986 39.1415 20.3031C39.1415 20.7076 39.4694 21.0355 39.8739 21.0355H45.3534C45.3813 21.0355 45.4038 21.0581 45.4038 21.0859V24.2172C45.4038 24.245 45.3813 24.2676 45.3534 24.2676H4.6466C4.61877 24.2676 4.59611 24.245 4.59611 24.2172ZM45.3534 34.4442C44.5179 34.4442 43.8382 35.1239 43.8382 35.9595V37.6814C42.895 37.1151 41.8006 36.7928 40.6565 36.7928C39.5123 36.7928 38.4179 37.1152 37.4747 37.6814V35.9595C37.4747 35.5 37.8486 35.1263 38.308 35.1263H40.6565C41.8271 35.1263 42.6112 34.4405 43.3031 33.8355C43.8593 33.3491 44.3506 32.9195 45.0088 32.8066L46.237 34.4442H45.3534Z" fill="#FE0002"/>
</g>
<defs>
<clipPath id="clip0">
<rect width="50" height="50" fill="white"/>
</clipPath>
</defs>
</svg>
