<svg width="50" height="50" viewBox="0 0 50 50" fill="none" xmlns="http://www.w3.org/2000/svg">
<g clip-path="url(#clip0)">
<path d="M20.0585 0H16.7278C14.4296 0.00270619 12.5671 1.86519 12.5644 4.16337V12.2828C12.5671 14.1902 13.0112 16.0711 13.8617 17.7784C14.645 19.3478 15.0288 21.0862 14.9792 22.8394L14.313 45.7771C14.2342 48.0291 15.9959 49.9186 18.2479 49.9974C20.4999 50.0762 22.3895 48.3146 22.4682 46.0625C22.4716 45.9674 22.4716 45.8721 22.4682 45.777L21.8021 22.8418C21.7527 21.0893 22.1365 19.3519 22.9196 17.7833C23.7725 16.0752 24.2183 14.1927 24.2219 12.2835V4.16337C24.2191 1.86519 22.3568 0.00281028 20.0585 0ZM22.5565 12.2836C22.5544 13.9327 22.1706 15.5589 21.4349 17.0348C20.5288 18.8493 20.0847 20.8595 20.1418 22.8869L20.8079 45.8187C20.827 46.4704 20.5798 47.1018 20.1234 47.5673C19.1627 48.5075 17.6269 48.5075 16.6662 47.5673C16.2091 47.1033 15.9608 46.4731 15.9784 45.8221L16.6445 22.8877C16.702 20.8602 16.2581 18.8498 15.3522 17.0348C14.6162 15.5587 14.2321 13.9322 14.2298 12.2828V4.16337C14.2341 3.10858 14.9006 2.17016 15.8951 1.81856V11.6574H17.5605V1.66535H19.2258V11.6574H20.8912V1.81856C21.8857 2.17016 22.5521 3.10858 22.5565 4.16337V12.2836Z" fill="#FE0002"/>
<path d="M36.712 24.9636V0.832709C36.712 0.372865 36.3391 3.51492e-05 35.8793 3.51492e-05C33.0213 -0.00902018 30.4492 1.73231 29.3961 4.38906C27.098 10.1352 26.9796 16.5232 29.063 22.3507L30.0489 25.1102L29.3361 45.7705C29.2576 48.0064 31.0065 49.8826 33.2423 49.9612C35.4783 50.0398 37.3545 48.2909 37.4331 46.055C37.4364 45.9602 37.4364 45.8653 37.4331 45.7706L36.712 24.9636ZM30.9424 5.00774C31.6331 3.26505 33.1944 2.01802 35.0466 1.7295V24.1476H31.4661L30.6243 21.7911C28.6793 16.3452 28.7923 10.3761 30.9424 5.00774ZM35.0966 47.5674C34.1456 48.5058 32.617 48.5058 31.666 47.5674C31.2155 47.1026 30.9748 46.4739 30.9998 45.8271L31.6876 25.8129H35.0749L35.7652 45.8271C35.7896 46.4742 35.548 47.1031 35.0966 47.5674Z" fill="#FE0002"/>
</g>
<defs>
<clipPath id="clip0">
<rect width="50" height="50" fill="white"/>
</clipPath>
</defs>
</svg>
