<svg width="50" height="50" viewBox="0 0 50 50" fill="none" xmlns="http://www.w3.org/2000/svg">
<path d="M19.8896 21.515C17.968 21.515 16.4047 23.0784 16.4047 24.9999C16.4047 26.9215 17.968 28.4849 19.8896 28.4849C21.8113 28.4849 23.3747 26.9215 23.3747 24.9999C23.3747 23.0784 21.8113 21.515 19.8896 21.515ZM19.8897 27.0201C18.7758 27.0201 17.8696 26.1139 17.8696 24.9999C17.8696 23.8861 18.7758 22.9798 19.8897 22.9798C21.0037 22.9798 21.9099 23.8861 21.9099 24.9999C21.9099 26.1139 21.0037 27.0201 19.8897 27.0201Z" fill="#FE0002"/>
<path d="M35.6283 20.4989C35.0546 18.0156 32.8761 16.2813 30.3306 16.2813C28.4651 16.2813 26.6989 17.2598 25.7111 18.8411C24.8676 20.1915 24.6622 21.8911 25.1506 23.4054C26.003 26.0487 28.8488 27.6501 31.5514 27.0258C34.4749 26.3503 36.3038 23.4224 35.6283 20.4989ZM30.1644 25.6972C29.381 25.6668 28.6505 25.4114 28.0415 24.9853C25.8695 23.4658 25.8184 20.1555 27.9228 18.5561C29.3877 20.3798 30.1878 22.645 30.1878 24.9999C30.1878 25.2322 30.18 25.4653 30.1644 25.6972ZM31.6419 25.4762C31.6482 25.3174 31.6526 25.1585 31.6526 24.9999C31.6526 22.4178 30.81 19.9305 29.2624 17.8925C29.3183 17.8771 29.3744 17.8623 29.4312 17.8492C29.7273 17.7807 30.03 17.746 30.3307 17.746C32.1902 17.746 33.7818 19.0136 34.2012 20.8286C34.6614 22.8212 33.5296 24.8161 31.6419 25.4762Z" fill="#FE0002"/>
<path d="M27.2893 28.3049C27.2679 28.3019 27.2466 28.2986 27.2252 28.2957C24.1413 27.8835 21.2756 30.2495 21.0768 33.3488C21.0765 33.3534 21.0762 33.358 21.0759 33.3627C20.9957 34.6645 21.379 35.9375 22.1772 36.9857C23.2152 38.3488 24.7944 39.1306 26.5103 39.1308C29.2005 39.1311 31.5385 37.0799 31.8988 34.419C32.2937 31.5023 30.203 28.7214 27.2893 28.3049ZM22.549 33.3964C22.6394 32.2837 23.1905 31.2147 24.0971 30.5249C25.4194 29.519 27.2944 29.4509 28.6837 30.3605C27.3322 32.5766 25.2063 34.1959 22.7192 34.9038C22.5615 34.4132 22.5081 33.9003 22.549 33.3964ZM30.4472 34.2223C30.1838 36.1671 28.4736 37.6658 26.51 37.6658C25.3068 37.6657 24.1965 37.1388 23.4383 36.2166C26.0387 35.3964 28.2701 33.6965 29.7585 31.4016C30.3382 32.2242 30.5829 33.2197 30.4472 34.2223Z" fill="#FE0002"/>
<path d="M18.7034 33.3616C18.7032 33.3577 18.7029 33.3538 18.7027 33.3499C18.589 31.5616 17.5606 29.8931 16.0137 28.9868C14.9569 28.3676 13.7008 28.1318 12.4901 28.3049C11.0848 28.5058 9.82089 29.2404 8.94384 30.3921C7.12588 32.7793 7.58906 36.2001 9.97626 38.018C10.9321 38.7459 12.0709 39.1307 13.2695 39.1307C16.3577 39.1307 18.8941 36.4484 18.7034 33.3616ZM13.2695 37.6659C12.3942 37.6659 11.5623 37.3846 10.8638 36.8527C9.15937 35.5547 8.79794 33.139 10.021 31.4017C11.5094 33.6965 13.7407 35.3963 16.3411 36.2167C15.5829 37.1389 14.4726 37.6659 13.2695 37.6659ZM17.2466 33.8432C17.2464 33.8471 17.2463 33.851 17.2462 33.8549C17.2319 34.2072 17.1708 34.56 17.0601 34.904C14.573 34.196 12.4472 32.5767 11.0957 30.3606C11.5745 30.0471 12.1163 29.8415 12.6846 29.7566C12.6934 29.7553 12.7023 29.754 12.7113 29.7527C15.1057 29.4214 17.3364 31.431 17.2466 33.8432Z" fill="#FE0002"/>
<path d="M13.9786 18.7204C12.991 17.2209 11.2535 16.2813 9.4488 16.2813C6.90329 16.2813 4.72478 18.0157 4.15105 20.4989C3.82381 21.9151 4.06765 23.3739 4.83767 24.6067C5.82312 26.1843 7.59773 27.1663 9.45759 27.1665C11.8464 27.1665 13.9123 25.6382 14.6313 23.3971C15.1333 21.8327 14.8814 20.091 13.9786 18.7204ZM8.13747 25.4764C7.28552 25.1795 6.56501 24.6068 6.08015 23.8306C5.51736 22.9297 5.33914 21.8636 5.5783 20.8286C5.99753 19.0136 7.58923 17.746 9.4487 17.746C9.80934 17.746 10.1693 17.7963 10.5168 17.8926C8.9695 19.9306 8.12683 22.4178 8.12683 24.9999C8.12683 25.1586 8.13112 25.3175 8.13747 25.4764ZM13.4236 21.9276C13.3212 23.9555 11.6437 25.6188 9.61491 25.6973C9.59938 25.4653 9.59167 25.2323 9.59167 24.9999C9.59167 22.6452 10.3916 20.3805 11.8559 18.5569C11.8738 18.5705 11.8918 18.5838 11.9093 18.5976C12.9066 19.3814 13.4876 20.661 13.4236 21.9276Z" fill="#FE0002"/>
<path d="M19.8897 8.63708C16.8892 8.63708 14.4481 11.0782 14.4481 14.0787C14.4481 14.433 14.4841 14.7865 14.5537 15.1332C14.7471 16.0967 15.2006 17.0072 15.8636 17.7357C16.8847 18.8575 18.3716 19.5202 19.8897 19.5202C21.3209 19.5202 22.7236 18.9346 23.7362 17.9242C24.748 16.9144 25.3313 15.5081 25.3313 14.0787C25.3313 11.0782 22.8902 8.63708 19.8897 8.63708ZM23.5515 15.6292C22.5686 17.9417 19.5578 18.7739 17.53 17.2772C16.9593 16.8559 16.505 16.2815 16.2276 15.6287C16.2265 15.626 16.2254 15.6233 16.2242 15.6207C16.2195 15.6097 16.1374 15.4072 16.1415 15.4056C17.3335 14.9384 18.5915 14.7019 19.8896 14.7019C21.1878 14.7019 22.4459 14.9383 23.6378 15.4056C23.6388 15.406 23.5529 15.626 23.5515 15.6292ZM19.8896 13.2371C18.5187 13.2371 17.1868 13.4689 15.9168 13.926C15.9973 11.8038 17.748 10.1018 19.8896 10.1018C22.0313 10.1018 23.782 11.8038 23.8626 13.926C22.5925 13.4689 21.2606 13.2371 19.8896 13.2371Z" fill="#FE0002"/>
<path d="M49.2676 32.7802H46.2119C44.8866 32.7802 43.722 32.973 42.6514 33.3695C42.2721 33.5099 42.0784 33.9314 42.219 34.3107C42.3595 34.6901 42.7808 34.8836 43.1602 34.7432C44.0652 34.408 45.0634 34.245 46.2119 34.245H48.5351V37.3786H46.2118C45.1655 37.3786 44.4001 37.5523 43.6527 37.9591C42.8827 38.3781 42.1616 39.0288 41.2477 39.9428C39.0022 42.1883 36.0167 43.4249 32.8413 43.4249H27.3783C27.935 43.1979 28.4819 42.9455 29.0157 42.6689C30.2907 42.0112 31.4971 41.2157 32.6079 40.2913H32.8413C35.1797 40.2913 37.3783 39.3807 39.0319 37.7272C39.6983 37.0608 40.244 36.5618 40.7493 36.1569C41.065 35.9038 41.1158 35.4429 40.8629 35.1273C40.61 34.8116 40.1489 34.7608 39.8333 35.0137C39.2851 35.4531 38.7013 35.9861 37.9961 36.6913C36.974 37.7135 35.7015 38.3938 34.3172 38.677C37.7006 35.1096 39.7794 30.2932 39.7794 25.0001C39.7794 19.0479 37.1451 13.4571 32.5522 9.6614C32.2404 9.40369 31.7787 9.44763 31.521 9.75935C31.2633 10.0711 31.3073 10.5328 31.619 10.7905C35.8741 14.307 38.3146 19.4862 38.3146 25.0001C38.3146 32.1311 34.2424 38.3284 28.3016 41.39C25.8891 42.6265 23.2128 43.3284 20.4816 43.4146C20.285 43.4208 20.0879 43.425 19.8897 43.425C9.73016 43.4248 1.46484 35.1595 1.46484 24.9999C1.46484 14.8404 9.73016 6.57508 19.8897 6.57508C23.1995 6.57508 26.4462 7.46375 29.2789 9.14509C29.6269 9.35164 30.0762 9.23699 30.2827 8.88914C30.4891 8.54129 30.3746 8.09187 30.0267 7.88553C26.9678 6.0699 23.4626 5.11034 19.8898 5.11034C8.92254 5.11024 0 14.0327 0 24.9999C0 35.9671 8.92254 44.8897 19.8897 44.8897C20.0631 44.8897 20.2361 44.8873 20.4086 44.8829C20.4395 44.8869 20.4709 44.8897 20.5029 44.8897H32.8414C36.4081 44.8897 39.7614 43.5007 42.2836 40.9785C44.0594 39.2027 44.7202 38.8435 46.2119 38.8435H49.2676C49.6721 38.8435 50 38.5155 50 38.1111V33.5126C50 33.1081 49.6721 32.7802 49.2676 32.7802Z" fill="#FE0002"/>
</svg>
