<svg width="50" height="50" viewBox="0 0 50 50" fill="none" xmlns="http://www.w3.org/2000/svg">
<g clip-path="url(#clip0)">
<path d="M47.9884 25.5069H40.3208V9.09014C40.3208 8.68535 39.9927 8.35732 39.588 8.35732C39.1833 8.35732 38.8552 8.68535 38.8552 9.09014V9.67275H9.39513C8.99044 9.67275 8.66232 10.0008 8.66232 10.4056C8.66232 10.8104 8.99044 11.1384 9.39513 11.1384H38.8553V35.6126C38.8553 35.7474 38.7457 35.8568 38.611 35.8568H2.18468C2.05001 35.8568 1.94044 35.7473 1.94044 35.6126V11.1383H5.73341C6.1381 11.1383 6.46622 10.8103 6.46622 10.4055C6.46622 10.0007 6.1381 9.67266 5.73341 9.67266H1.94044V1.70977C1.94044 1.575 2.05001 1.46553 2.18468 1.46553H38.611C38.7456 1.46553 38.8552 1.5751 38.8552 1.70977V5.44394C38.8552 5.84873 39.1833 6.17676 39.588 6.17676C39.9927 6.17676 40.3208 5.84873 40.3208 5.44394V1.70986C40.3208 0.766992 39.5537 0 38.611 0H2.18468C1.24191 0 0.474915 0.766992 0.474915 1.70986V35.6125C0.474915 36.5553 1.24191 37.3224 2.18478 37.3224H9.67931V48.2902C9.67931 49.233 10.4463 50.0001 11.3892 50.0001H17.7621C18.1668 50.0001 18.4949 49.6721 18.4949 49.2673C18.4949 48.8625 18.1668 48.5345 17.7621 48.5345H11.3892C11.2545 48.5345 11.1449 48.4249 11.1449 48.2902V37.3223H38.6111C39.254 37.3223 39.8147 36.9652 40.1066 36.4395L48.0597 27.2132V48.2901C48.0597 48.4249 47.9501 48.5344 47.8154 48.5344H21.3777C20.9731 48.5344 20.6449 48.8624 20.6449 49.2672C20.6449 49.672 20.9731 50 21.3777 50H47.8153C48.7581 50 49.5252 49.233 49.5252 48.2901V27.0438C49.5251 26.1964 48.8358 25.5069 47.9884 25.5069ZM46.3322 26.9725L40.3208 33.9462V26.9725H46.3322Z" fill="#FE0002"/>
<path d="M5.89137 6.97062C6.68053 6.97062 7.32028 6.33088 7.32028 5.54172C7.32028 4.75255 6.68053 4.11281 5.89137 4.11281C5.10221 4.11281 4.46246 4.75255 4.46246 5.54172C4.46246 6.33088 5.10221 6.97062 5.89137 6.97062Z" fill="#FE0002"/>
<path d="M10.2368 6.97062C11.026 6.97062 11.6657 6.33088 11.6657 5.54172C11.6657 4.75255 11.026 4.11281 10.2368 4.11281C9.44767 4.11281 8.80792 4.75255 8.80792 5.54172C8.80792 6.33088 9.44767 6.97062 10.2368 6.97062Z" fill="#FE0002"/>
<path d="M14.5823 6.97062C15.3715 6.97062 16.0113 6.33088 16.0113 5.54172C16.0113 4.75255 15.3715 4.11281 14.5823 4.11281C13.7932 4.11281 13.1534 4.75255 13.1534 5.54172C13.1534 6.33088 13.7932 6.97062 14.5823 6.97062Z" fill="#FE0002"/>
<path d="M5.46708 14.5868C5.16093 14.6822 4.95233 14.9657 4.95233 15.2864V22.533C4.95233 22.9378 5.28046 23.2658 5.68514 23.2658C6.08983 23.2658 6.41796 22.9378 6.41796 22.533V17.6371L9.98202 22.7983C10.2044 23.1194 10.5723 23.2566 10.9195 23.1483C11.2754 23.037 11.5055 22.6995 11.5054 22.2814L11.4375 15.2658C11.4336 14.8636 11.1063 14.5402 10.7049 14.5402C10.7025 14.5402 10.7001 14.5402 10.6976 14.5402C10.293 14.5441 9.96815 14.8753 9.97206 15.28L10.0204 20.2747L6.28807 14.87C6.10585 14.6062 5.77313 14.4914 5.46708 14.5868Z" fill="#FE0002"/>
<path d="M17.1035 16.072C17.5082 16.072 17.8364 15.744 17.8364 15.3392C17.8364 14.9344 17.5082 14.6064 17.1035 14.6064H14.0723C13.6676 14.6064 13.3395 14.9344 13.3395 15.3392V22.533C13.3395 22.9378 13.6676 23.2659 14.0723 23.2659H17.1035C17.5082 23.2659 17.8364 22.9378 17.8364 22.533C17.8364 22.1283 17.5082 21.8002 17.1035 21.8002H14.8051V19.669H16.88C17.2847 19.669 17.6128 19.3409 17.6128 18.9362C17.6128 18.5314 17.2847 18.2033 16.88 18.2033H14.8051V16.072H17.1035Z" fill="#FE0002"/>
<path d="M32.1833 21.8335C31.4132 21.8335 30.6704 21.5212 30.1963 20.998C29.9246 20.6981 29.4612 20.6754 29.1612 20.947C28.8614 21.2189 28.8386 21.6822 29.1103 21.9821C29.8576 22.8067 31.0064 23.299 32.1833 23.299C33.6052 23.299 34.8447 22.3629 35.0663 21.1216C35.2346 20.1789 34.7978 18.9442 33.0673 18.3058C32.1472 17.9665 31.2927 17.5963 31.0613 17.4946C30.8602 17.3431 30.7632 17.1043 30.8003 16.8458C30.8485 16.5098 31.1101 16.2391 31.5003 16.1217C32.6187 15.7849 33.637 16.5976 33.6594 16.6157C33.9692 16.8734 34.4293 16.8326 34.6888 16.5238C34.9492 16.214 34.9091 15.7517 34.5994 15.4913C34.5339 15.4362 32.9718 14.1478 31.0775 14.7182C30.1411 15.0003 29.479 15.7357 29.3495 16.6375C29.2234 17.5105 29.6298 18.3811 30.403 18.8059C30.4448 18.8246 31.4395 19.2673 32.56 19.6806C33.3201 19.9611 33.7077 20.3923 33.6235 20.8637C33.5384 21.3405 32.9764 21.8335 32.1833 21.8335Z" fill="#FE0002"/>
<path d="M27.731 14.6007C27.3339 14.5214 26.9482 14.7794 26.8692 15.1763L25.8931 20.0813L24.3555 15.0903C24.3511 15.076 24.3444 15.0633 24.3367 15.0511C24.258 14.8514 24.093 14.6878 23.8719 14.6192C23.4853 14.4998 23.0748 14.7161 22.9552 15.1026L21.4141 20.0816L20.4413 15.1638C20.3628 14.7669 19.9773 14.5086 19.5803 14.5872C19.1833 14.6657 18.9251 15.0511 19.0036 15.4482L20.4182 22.5993C20.5038 23.0078 20.8819 23.3039 21.2975 23.299C21.6789 23.2965 22.0176 23.0519 22.1403 22.6908C22.1425 22.6845 22.1445 22.6781 22.1466 22.6718L23.6557 17.7963L25.158 22.6729C25.161 22.6829 25.1643 22.6927 25.1678 22.7024C25.2947 23.0599 25.6337 23.299 26.0127 23.299C26.4274 23.3011 26.8008 23.0049 26.8865 22.5981L28.3067 15.4624C28.3856 15.0654 28.1278 14.6797 27.731 14.6007Z" fill="#FE0002"/>
<path d="M4.79425 26.5916C4.79425 26.9964 5.12238 27.3244 5.52706 27.3244H17.469C17.8736 27.3244 18.2018 26.9964 18.2018 26.5916C18.2018 26.1868 17.8736 25.8588 17.469 25.8588H5.52706C5.12238 25.8588 4.79425 26.1868 4.79425 26.5916Z" fill="#FE0002"/>
<path d="M17.4689 29.2478H5.52706C5.12238 29.2478 4.79425 29.5759 4.79425 29.9807C4.79425 30.3854 5.12238 30.7135 5.52706 30.7135H17.469C17.8736 30.7135 18.2018 30.3854 18.2018 29.9807C18.2017 29.5759 17.8736 29.2478 17.4689 29.2478Z" fill="#FE0002"/>
<path d="M21.243 26.5916C21.243 26.9964 21.5712 27.3244 21.9759 27.3244H33.9178C34.3224 27.3244 34.6506 26.9964 34.6506 26.5916C34.6506 26.1868 34.3224 25.8588 33.9178 25.8588H21.9759C21.5711 25.8588 21.243 26.1868 21.243 26.5916Z" fill="#FE0002"/>
<path d="M33.9177 29.2478H21.9759C21.5712 29.2478 21.243 29.5759 21.243 29.9807C21.243 30.3854 21.5712 30.7135 21.9759 30.7135H33.9178C34.3224 30.7135 34.6506 30.3854 34.6506 29.9807C34.6505 29.5759 34.3224 29.2478 33.9177 29.2478Z" fill="#FE0002"/>
<path d="M15.4068 40.89H27.3487C27.7534 40.89 28.0815 40.5619 28.0815 40.1572C28.0815 39.7524 27.7534 39.4243 27.3487 39.4243H15.4068C15.0021 39.4243 14.674 39.7524 14.674 40.1572C14.674 40.5619 15.002 40.89 15.4068 40.89Z" fill="#FE0002"/>
<path d="M15.4068 44.2789H27.3487C27.7534 44.2789 28.0815 43.9509 28.0815 43.5461C28.0815 43.1413 27.7534 42.8133 27.3487 42.8133H15.4068C15.0021 42.8133 14.674 43.1413 14.674 43.5461C14.674 43.9509 15.002 44.2789 15.4068 44.2789Z" fill="#FE0002"/>
<path d="M31.8557 40.89H43.7976C44.2023 40.89 44.5304 40.5619 44.5304 40.1572C44.5304 39.7524 44.2023 39.4243 43.7976 39.4243H31.8557C31.451 39.4243 31.1229 39.7524 31.1229 40.1572C31.1229 40.5619 31.4509 40.89 31.8557 40.89Z" fill="#FE0002"/>
<path d="M31.8557 44.2789H43.7976C44.2023 44.2789 44.5304 43.9509 44.5304 43.5461C44.5304 43.1413 44.2023 42.8133 43.7976 42.8133H31.8557C31.451 42.8133 31.1229 43.1413 31.1229 43.5461C31.1229 43.9509 31.4509 44.2789 31.8557 44.2789Z" fill="#FE0002"/>
</g>
<defs>
<clipPath id="clip0">
<rect width="50" height="50" fill="white"/>
</clipPath>
</defs>
</svg>
