<svg width="48" height="50" viewBox="0 0 48 50" fill="none" xmlns="http://www.w3.org/2000/svg">
<g clip-path="url(#clip0)">
<path d="M45.647 0H11.1372C9.80385 0 8.78427 1.0833 8.78427 2.5V26.6667H1.72545C1.25486 26.6667 0.941162 27 0.941162 27.5V45C0.941162 47.75 3.05881 50 5.64704 50H43.2941C45.8823 50 48 47.75 48 45V2.5C48 1.0833 46.9804 0 45.647 0ZM2.50982 45V28.3333H8.78436V45C8.78436 46.8333 7.3726 48.3333 5.64714 48.3333C3.92168 48.3333 2.50982 46.8333 2.50982 45ZM46.4313 45C46.4313 46.8333 45.0196 48.3333 43.2941 48.3333H9.17646C9.32738 48.1373 9.46671 47.9293 9.59383 47.7121C10.0349 46.9916 10.307 46.1451 10.3473 45.2364C10.351 45.1579 10.353 45.0791 10.353 44.9999V27.5V2.5C10.353 2 10.6667 1.6667 11.1373 1.6667H45.647C46.1176 1.6667 46.4313 2 46.4313 2.5V45Z" fill="#FE0002"/>
<path d="M43.294 8.3333H13.4901C13.0195 8.3333 12.7058 8.6666 12.7058 9.1666V21.6666C12.7058 22.1666 13.0195 22.4999 13.4901 22.4999H43.294C43.7646 22.4999 44.0783 22.1666 44.0783 21.6666V9.1666C44.0783 8.6667 43.7646 8.3333 43.294 8.3333ZM42.5098 20.8333H14.2745V10H42.5098V20.8333Z" fill="#FE0002"/>
<path d="M43.294 4.1667H13.4901C13.0195 4.1667 12.7058 4.5 12.7058 5C12.7058 5.5 13.0195 5.8333 13.4901 5.8333H43.294C43.7646 5.8333 44.0783 5.5 44.0783 5C44.0783 4.5 43.7646 4.1667 43.294 4.1667Z" fill="#FE0002"/>
<path d="M13.4901 32.5H18.196C18.6666 32.5 18.9803 32.1667 18.9803 31.6667V26.6667C18.9803 26.1667 18.6666 25.8334 18.196 25.8334H13.4901C13.0195 25.8334 12.7058 26.1667 12.7058 26.6667V31.6667C12.7058 32.1667 13.0195 32.5 13.4901 32.5ZM14.2745 27.5H17.4117V30.8333H14.2745V27.5Z" fill="#FE0002"/>
<path d="M13.4901 41.6667H18.196C18.6666 41.6667 18.9803 41.3334 18.9803 40.8334V35.8334C18.9803 35.3334 18.6666 35.0001 18.196 35.0001H13.4901C13.0195 35.0001 12.7058 35.3334 12.7058 35.8334V40.8334C12.7058 41.3333 13.0195 41.6667 13.4901 41.6667ZM14.2745 36.6667H17.4117V40H14.2745V36.6667Z" fill="#FE0002"/>
<path d="M43.2941 25.8333H22.1177C21.6471 25.8333 21.3334 26.1666 21.3334 26.6666C21.3334 27.1666 21.6471 27.4999 22.1177 27.4999H43.2941C43.7647 27.4999 44.0784 27.1666 44.0784 26.6666C44.0784 26.1667 43.7647 25.8333 43.2941 25.8333Z" fill="#FE0002"/>
<path d="M22.1177 31.6667H29.9608C30.4314 31.6667 30.745 31.3334 30.745 30.8334C30.745 30.3334 30.4314 30.0001 29.9608 30.0001H22.1177C21.6471 30.0001 21.3334 30.3334 21.3334 30.8334C21.3334 31.3334 21.6471 31.6667 22.1177 31.6667Z" fill="#FE0002"/>
<path d="M43.2941 35H22.1177C21.6471 35 21.3334 35.3333 21.3334 35.8333C21.3334 36.3333 21.6471 36.6666 22.1177 36.6666H43.2941C43.7647 36.6666 44.0784 36.3333 44.0784 35.8333C44.0784 35.3333 43.7647 35 43.2941 35Z" fill="#FE0002"/>
<path d="M29.9608 40.8333C30.4314 40.8333 30.745 40.5 30.745 40C30.745 39.5 30.4314 39.1667 29.9608 39.1667H22.1177C21.6471 39.1667 21.3334 39.5 21.3334 40C21.3334 40.5 21.6471 40.8333 22.1177 40.8333H29.9608Z" fill="#FE0002"/>
<path d="M43.294 44.1667H13.4901C13.0195 44.1667 12.7058 44.5 12.7058 45C12.7058 45.5 13.0195 45.8333 13.4901 45.8333H43.294C43.7646 45.8333 44.0783 45.5 44.0783 45C44.0783 44.5 43.7646 44.1667 43.294 44.1667Z" fill="#FE0002"/>
</g>
<defs>
<clipPath id="clip0">
<rect width="47.0588" height="50" fill="white" transform="translate(0.941162)"/>
</clipPath>
</defs>
</svg>
