<svg width="42" height="34" viewBox="0 0 42 34" fill="none" xmlns="http://www.w3.org/2000/svg">
<path d="M3.68934 5.10825C6.61225 1.9395 11.0352 0.333252 16.8331 0.333252H18.9164V6.20617L17.2414 6.54158C14.3873 7.11242 12.4018 8.23533 11.3393 9.88325C10.7849 10.771 10.4705 11.7875 10.4268 12.8333H16.8331C17.3856 12.8333 17.9155 13.0527 18.3062 13.4434C18.6969 13.8341 18.9164 14.364 18.9164 14.9166V29.4999C18.9164 31.7978 17.0477 33.6666 14.7498 33.6666H2.24975C1.69722 33.6666 1.16732 33.4471 0.776614 33.0564C0.385913 32.6657 0.16642 32.1358 0.16642 31.5832V21.1666L0.17267 15.0853C0.15392 14.8541 -0.241913 9.37492 3.68934 5.10825ZM37.6664 33.6666H25.1664C24.6139 33.6666 24.084 33.4471 23.6933 33.0564C23.3026 32.6657 23.0831 32.1358 23.0831 31.5832V21.1666L23.0893 15.0853C23.0706 14.8541 22.6748 9.37492 26.606 5.10825C29.5289 1.9395 33.9518 0.333252 39.7498 0.333252H41.8331V6.20617L40.1581 6.54158C37.3039 7.11242 35.3185 8.23533 34.256 9.88325C33.7016 10.771 33.3872 11.7875 33.3435 12.8333H39.7498C40.3023 12.8333 40.8322 13.0527 41.2229 13.4434C41.6136 13.8341 41.8331 14.364 41.8331 14.9166V29.4999C41.8331 31.7978 39.9643 33.6666 37.6664 33.6666Z" fill="#FE0002"/>
</svg>
