<svg width="0" height="0" class="hidden">
  <symbol fill="none" xmlns="http://www.w3.org/2000/svg" viewBox="0 0 24 24" id="mail">
    <path d="M20 4H4c-1.1 0-1.99.9-1.99 2L2 18c0 1.1.9 2 2 2h16c1.1 0 2-.9 2-2V6c0-1.1-.9-2-2-2zm0 14H4V8l8 5 8-5v10zm-8-7L4 6h16l-8 5z" fill="#FE0002"></path>
  </symbol>
  <symbol fill="none" xmlns="http://www.w3.org/2000/svg" viewBox="0 0 24 24" id="time">
    <path d="M11.99 2C6.47 2 2 6.48 2 12s4.47 10 9.99 10C17.52 22 22 17.52 22 12S17.52 2 11.99 2zM12 20c-4.42 0-8-3.58-8-8s3.58-8 8-8 8 3.58 8 8-3.58 8-8 8z" fill="#FE0002"></path>
    <path d="M12.5 7H11v6l5.25 3.15.75-1.23-4.5-2.67V7z" fill="#FE0002"></path>
  </symbol>
  <symbol fill="none" xmlns="http://www.w3.org/2000/svg" viewBox="0 0 24 24" id="place">
    <path d="M12 12c-1.1 0-2-.9-2-2s.9-2 2-2 2 .9 2 2-.9 2-2 2zm6-1.8C18 6.57 15.35 4 12 4s-6 2.57-6 6.2c0 2.34 1.95 5.44 6 9.14 4.05-3.7 6-6.8 6-9.14zM12 2c4.2 0 8 3.22 8 8.2 0 3.32-2.67 7.25-8 11.8-5.33-4.55-8-8.48-8-11.8C4 5.22 7.8 2 12 2z" fill="#FE0002"></path>
  </symbol>
  <symbol fill="none" xmlns="http://www.w3.org/2000/svg" viewBox="0 0 24 24" id="talk">
    <path d="M15 12h2c0-2.76-2.24-5-5-5v2c1.66 0 3 1.34 3 3zm4 0h2a9 9 0 00-9-9v2c3.87 0 7 3.13 7 7zm1 3.5c-1.25 0-2.45-.2-3.57-.57-.1-.03-.21-.05-.31-.05-.26 0-.51.1-.71.29l-2.2 2.2a15.045 15.045 0 01-6.59-6.59l2.2-2.21a.96.96 0 00.25-1A11.36 11.36 0 018.5 4c0-.55-.45-1-1-1H4c-.55 0-1 .45-1 1 0 9.39 7.61 17 17 17 .55 0 1-.45 1-1v-3.5c0-.55-.45-1-1-1zM5.03 5h1.5c.07.88.22 1.75.45 2.58l-1.2 1.21c-.4-1.21-.66-2.47-.75-3.79zM19 18.97c-1.32-.09-2.6-.35-3.8-.76l1.2-1.2c.85.24 1.72.39 2.6.45v1.51z" fill="#FE0002"></path>
  </symbol>
  <symbol fill="none" xmlns="http://www.w3.org/2000/svg" viewBox="0 0 24 24" id="inst">
    <path d="M12 5.991A6 6 0 005.991 12 6 6 0 0012 18.009a6 6 0 006.009-6.01A6 6 0 0012 5.992zm0 9.914A3.914 3.914 0 018.095 12 3.914 3.914 0 0112 8.095 3.914 3.914 0 0115.905 12 3.914 3.914 0 0112 15.905zm6.255-11.56c-.776 0-1.403.627-1.403 1.403s.627 1.403 1.403 1.403a1.4 1.4 0 001.297-1.94 1.402 1.402 0 00-1.297-.866zM23.713 12c0-1.617.015-3.22-.076-4.834-.091-1.875-.519-3.54-1.89-4.91-1.374-1.374-3.035-1.8-4.91-1.89C15.22.276 13.617.29 12.003.29c-1.617 0-3.22-.015-4.834.076-1.875.09-3.54.519-4.91 1.89C.885 3.63.46 5.29.369 7.166.28 8.783.293 10.386.293 12c0 1.614-.015 3.22.076 4.834.091 1.875.519 3.539 1.89 4.91 1.374 1.374 3.035 1.799 4.91 1.89 1.617.09 3.22.076 4.834.076 1.617 0 3.22.014 4.834-.076 1.875-.091 3.539-.519 4.91-1.89 1.374-1.374 1.799-3.035 1.89-4.91.093-1.614.076-3.217.076-4.834zm-2.578 6.908a3.724 3.724 0 01-.885 1.342c-.413.413-.809.67-1.342.885-1.54.612-5.2.474-6.908.474-1.708 0-5.37.138-6.911-.471a3.723 3.723 0 01-1.342-.885 3.748 3.748 0 01-.885-1.342c-.61-1.544-.471-5.203-.471-6.911 0-1.708-.138-5.37.471-6.911.214-.533.472-.932.885-1.342.413-.41.809-.67 1.342-.885 1.54-.61 5.203-.471 6.911-.471 1.708 0 5.37-.138 6.911.471.533.214.932.472 1.342.885.413.413.67.809.885 1.342.61 1.54.471 5.203.471 6.91 0 1.709.138 5.368-.474 6.91z" fill="#FE0002"></path>
  </symbol>
  <symbol fill="none" xmlns="http://www.w3.org/2000/svg" viewBox="0 0 14 23" id="ok">
    <path d="M6.517 0A5.814 5.814 0 00.71 5.807a5.813 5.813 0 005.808 5.806 5.812 5.812 0 005.807-5.806A5.813 5.813 0 006.517 0zm0 3.402A2.407 2.407 0 018.92 5.807 2.406 2.406 0 016.517 8.21a2.407 2.407 0 01-2.405-2.403 2.408 2.408 0 012.405-2.405zM1.73 11.81a1.702 1.702 0 00-.934 3.143c1.05.66 2.19 1.127 3.37 1.396L.92 19.596a1.701 1.701 0 102.407 2.405l3.189-3.19 3.191 3.19a1.7 1.7 0 102.406-2.405L8.866 16.35a10.88 10.88 0 003.371-1.397 1.702 1.702 0 10-1.812-2.88 7.375 7.375 0 01-7.818 0 1.693 1.693 0 00-.878-.263z" fill="#FE0002"></path>
  </symbol>
  <symbol fill="none" xmlns="http://www.w3.org/2000/svg" viewBox="0 0 12 24" id="fb">
    <path d="M7.746 23.246V13.001h3.457l.513-4.011h-3.97V6.435c0-1.158.323-1.95 1.984-1.95h2.105V.909A27.92 27.92 0 008.751.75C5.696.75 3.6 2.615 3.6 6.039v2.943H.165v4.012h3.441v10.252h4.14z" fill="#FE0002"></path>
  </symbol>
  <symbol fill="none" xmlns="http://www.w3.org/2000/svg" viewBox="0 0 27 18" id="vk">
    <path d="M26.38 1.219C26.57.516 26.38 0 25.49 0h-2.955c-.752 0-1.095.446-1.284.936 0 0-1.502 4.112-3.631 6.779-.687.775-1.001 1.02-1.376 1.02-.187 0-.46-.245-.46-.948V1.22c0-.845-.216-1.22-.844-1.22h-4.643c-.469 0-.752.39-.752.762 0 .799 1.065.983 1.174 3.234v4.881c0 1.07-.171 1.265-.549 1.265-1 0-3.437-4.127-4.883-8.852C5.006.372 4.721.002 3.967.002H1.013C.168.002 0 .448 0 .938c0 .88 1.001 5.235 4.663 10.996C7.105 15.868 10.543 18 13.673 18c1.877 0 2.11-.473 2.11-1.29v-2.973c0-.947.178-1.138.773-1.138.436 0 1.188.248 2.941 2.143 2.002 2.248 2.334 3.256 3.459 3.256h2.953c.844 0 1.266-.473 1.023-1.408-.265-.93-1.222-2.283-2.491-3.885-.69-.913-1.721-1.896-2.035-2.388-.438-.633-.311-.913 0-1.476.001.002 3.6-5.688 3.975-7.622z" fill="#FE0002"></path>
  </symbol>
  <symbol fill="none" xmlns="http://www.w3.org/2000/svg" viewBox="0 0 30 19" id="arr-up">
    <path d="M26.475 18.525L30 15 15 0 0 15l3.525 3.525L15 7.075l11.475 11.45z" fill="#FE0002"></path>
  </symbol>
  <symbol fill="none" xmlns="http://www.w3.org/2000/svg" viewBox="0 0 14 10" id="bread-arrow">
    <path fill-rule="evenodd" clip-rule="evenodd" d="M0 5a.5.5 0 01.5-.5h11.793L9.146 1.354a.5.5 0 11.708-.708l4 4a.5.5 0 010 .708l-4 4a.5.5 0 11-.708-.708L12.293 5.5H.5A.5.5 0 010 5z" fill="#333"></path>
  </symbol>
  <symbol fill="none" xmlns="http://www.w3.org/2000/svg" viewBox="0 0 50 50" id="seats">
    <path d="M43.92 31.99H27.026a.675.675 0 01-.675-.676v-4.055a.676.676 0 01.675-.675H43.92a.676.676 0 01.676.675v4.055a.676.676 0 01-.676.675zm-16.217-1.352h15.54v-2.703h-15.54v2.703z" fill="#FE0002"></path>
    <path d="M43.92 27.935H27.026a.675.675 0 01-.675-.676V12.635a3.36 3.36 0 011.813-2.987c5.181-2.612 10.119-2.64 14.676-.08a3.408 3.408 0 011.754 2.958v14.733a.676.676 0 01-.676.676zm-16.217-1.351h15.54V12.526a2.053 2.053 0 00-1.064-1.779c-4.198-2.358-8.58-2.323-13.406.108a2 2 0 00-1.07 1.78v13.949z" fill="#FE0002"></path>
    <path d="M47.297 35.367h-2.703a1.351 1.351 0 01-1.35-1.35V23.204a1.351 1.351 0 011.35-1.351h2.703a1.352 1.352 0 011.352 1.351v10.811a1.351 1.351 0 01-1.352 1.352zm-2.703-12.162v10.811h2.703v-10.81h-2.703zM26.35 35.367h-2.702a1.351 1.351 0 01-1.351-1.35V23.204a1.351 1.351 0 011.351-1.351h2.703a1.352 1.352 0 011.351 1.351v10.811a1.351 1.351 0 01-1.351 1.352zm-2.702-12.162v10.811h2.703v-10.81h-2.703z" fill="#FE0002"></path>
    <path d="M22.973 31.99H6.08a.675.675 0 01-.676-.676v-4.055a.676.676 0 01.676-.675h16.892a.676.676 0 01.675.675v4.055a.676.676 0 01-.675.675zM6.757 30.637h15.54v-2.703H6.757v2.703z" fill="#FE0002"></path>
    <path d="M22.973 27.935H6.08a.676.676 0 01-.676-.675V12.525a3.408 3.408 0 011.757-2.957c4.558-2.56 9.495-2.532 14.676.079a3.362 3.362 0 011.81 2.987V27.26a.676.676 0 01-.675.676zM6.757 26.584h15.54V12.635a2 2 0 00-1.07-1.78c-4.822-2.433-9.207-2.467-13.406-.108a2.054 2.054 0 00-1.064 1.779v14.058z" fill="#FE0002"></path>
    <path d="M5.406 35.367H2.703a1.351 1.351 0 01-1.351-1.35V23.204a1.351 1.351 0 011.35-1.351h2.704a1.351 1.351 0 011.351 1.351v10.811a1.351 1.351 0 01-1.351 1.352zm0-12.162H2.703v10.811h2.703v-10.81zm31.967 16.217h-3.8a.676.676 0 01-.675-.676v-7.432a.676.676 0 01.675-.676h3.8a.676.676 0 01.676.676v7.432a.676.676 0 01-.676.676zM34.25 38.07h2.448v-6.08H34.25v6.08z" fill="#FE0002"></path>
    <path d="M39.19 42.335h-7.433a1.351 1.351 0 01-1.352-1.351v-1.562a1.351 1.351 0 011.352-1.352h7.432a1.351 1.351 0 011.351 1.352v1.562a1.352 1.352 0 01-1.35 1.351zm-7.433-2.913v1.562h7.432v-1.562h-7.432zm-15.33 0h-3.8a.676.676 0 01-.676-.676v-7.432a.676.676 0 01.676-.676h3.8a.676.676 0 01.675.676v7.432a.676.676 0 01-.675.676zm-3.124-1.352h2.448v-6.08h-2.448v6.08z" fill="#FE0002"></path>
    <path d="M18.243 42.335H10.81a1.351 1.351 0 01-1.351-1.351v-1.562a1.351 1.351 0 011.351-1.352h7.433a1.351 1.351 0 011.351 1.352v1.562a1.352 1.352 0 01-1.351 1.351zm0-2.915H10.81v1.563h7.433V39.42z" fill="#FE0002"></path>
  </symbol>
  <symbol fill="none" xmlns="http://www.w3.org/2000/svg" viewBox="0 0 50 50" id="theater">
    <path d="M47.973 48.649H2.027a.676.676 0 01-.675-.676V2.027a.676.676 0 01.675-.676h45.946a.676.676 0 01.676.676v45.946a.676.676 0 01-.676.676zm-45.27-1.352h44.594V2.703H2.703v44.594z" fill="#FE0002"></path>
    <path d="M45.298 12.162H42.99a3.354 3.354 0 01-3.35-3.35V2.027a.676.676 0 01.675-.676h7.658a.675.675 0 01.675.676v6.785a3.355 3.355 0 01-3.35 3.35zm-4.307-9.46v6.11a2 2 0 001.999 1.999h2.308a2.001 2.001 0 002-1.999v-6.11H40.99z" fill="#FE0002"></path>
    <path d="M37.64 12.162h-2.308a3.354 3.354 0 01-3.35-3.35V2.027a.676.676 0 01.675-.676h7.658a.676.676 0 01.676.676v6.785a3.355 3.355 0 01-3.35 3.35zm-4.307-9.46v6.11a2.001 2.001 0 002 1.999h2.307a2.002 2.002 0 002-1.999v-6.11h-6.307z" fill="#FE0002"></path>
    <path d="M29.983 12.162h-2.309a3.355 3.355 0 01-3.35-3.35V2.027A.676.676 0 0125 1.351h7.657a.676.676 0 01.676.676v6.785a3.355 3.355 0 01-3.35 3.35zm-4.307-9.46v6.11a2 2 0 001.998 1.999h2.309a2.001 2.001 0 001.999-1.999v-6.11h-6.306z" fill="#FE0002"></path>
    <path d="M22.326 12.162h-2.309a3.354 3.354 0 01-3.35-3.35V2.027a.676.676 0 01.676-.676H25a.676.676 0 01.676.676v6.785a3.355 3.355 0 01-3.35 3.35zm-4.308-9.46v6.11a2.001 2.001 0 001.999 1.999h2.309a2 2 0 001.998-1.999v-6.11h-6.306z" fill="#FE0002"></path>
    <path d="M14.668 12.162H12.36a3.354 3.354 0 01-3.351-3.35V2.027a.676.676 0 01.675-.676h7.659a.675.675 0 01.675.676v6.785a3.354 3.354 0 01-3.35 3.35zm-4.308-9.46v6.11a2.001 2.001 0 002 1.999h2.308a2.002 2.002 0 001.999-1.999v-6.11H10.36z" fill="#FE0002"></path>
    <path d="M7.01 12.162H4.702a3.355 3.355 0 01-3.35-3.35V2.027a.676.676 0 01.675-.676h7.658a.676.676 0 01.675.676v6.785a3.354 3.354 0 01-3.35 3.35zm-4.307-9.46v6.11a2 2 0 001.999 1.999H7.01a2.001 2.001 0 002-1.999v-6.11H2.703zm45.27 33.785H42.23a3.04 3.04 0 110-6.082h5.743a.676.676 0 01.676.676v4.73a.676.676 0 01-.676.676zm-5.743-4.73a1.689 1.689 0 100 3.378h5.068v-3.378H42.23z" fill="#FE0002"></path>
    <path d="M42.23 31.757a.675.675 0 01-.282-.062c-8.478-3.886-6.04-19.647-5.935-20.316a.676.676 0 011.334.215c-.025.154-2.385 15.414 5.161 18.873a.676.676 0 01-.279 1.29zm-2.365 16.892a.676.676 0 01-.675-.629c-.608-8.742 2.392-12.484 2.52-12.64a.676.676 0 011.043.858c-.039.05-2.783 3.56-2.213 11.69a.676.676 0 01-.627.72h-.048zM7.77 36.487H2.027a.676.676 0 01-.675-.676v-4.73a.676.676 0 01.675-.675H7.77a3.04 3.04 0 010 6.08zm-5.067-1.352H7.77a1.69 1.69 0 000-3.378H2.703v3.378z" fill="#FE0002"></path>
    <path d="M7.77 31.757a.675.675 0 01-.281-1.29c7.546-3.459 5.186-18.716 5.16-18.873a.676.676 0 011.335-.215c.107.669 2.546 16.43-5.932 20.316a.675.675 0 01-.281.062zm2.365 16.892h-.048a.677.677 0 01-.628-.723c.571-8.146-2.186-11.653-2.213-11.69a.676.676 0 011.044-.858c.127.156 3.13 3.898 2.518 12.64a.676.676 0 01-.673.63zm25.676 0H14.189a.675.675 0 01-.675-.676v-2.027a1.689 1.689 0 011.689-1.69h19.595a1.69 1.69 0 011.689 1.69v2.027a.675.675 0 01-.676.676zm-20.946-1.352h20.27v-1.351a.338.338 0 00-.337-.338H15.203a.338.338 0 00-.338.338v1.351z" fill="#FE0002"></path>
  </symbol>
  <symbol fill="none" xmlns="http://www.w3.org/2000/svg" viewBox="0 0 50 50" id="cup">
    <path d="M35.433 48.649H14.568a.676.676 0 01-.672-.602l-3.24-29.31a.676.676 0 01.672-.75h27.345a.675.675 0 01.671.75l-3.239 29.31a.676.676 0 01-.672.602zm-20.26-1.352h19.655l3.09-27.96H12.083l3.09 27.96z" fill="#FE0002"></path>
    <path d="M40.724 19.338H9.276a1.36 1.36 0 01-1.359-1.36v-2.82a1.36 1.36 0 011.36-1.359h31.447a1.36 1.36 0 011.36 1.36v2.82a1.36 1.36 0 01-1.36 1.359zm-31.448-4.19l-.008.009v2.82l31.456.007.008-2.827-31.456-.008z" fill="#FE0002"></path>
    <path d="M35.938 15.15H14.062a.676.676 0 01-.599-.99l2.05-3.902a.676.676 0 01.6-.361h17.774a.676.676 0 01.599.361l2.05 3.903a.676.676 0 01-.598.99zM15.18 13.8h19.64l-1.341-2.552h-16.96L15.18 13.8zm6.095 22.543h-8.067a.676.676 0 010-1.351h8.067a.676.676 0 010 1.351zm15.517 0h-8.067a.676.676 0 010-1.351h8.067a.676.676 0 010 1.351zM21.41 30.19h-8.88a.676.676 0 010-1.35h8.88a.676.676 0 010 1.35zm16.06 0h-8.881a.676.676 0 010-1.35h8.88a.676.676 0 010 1.35z" fill="#FE0002"></path>
    <path d="M25 38.138a5.462 5.462 0 115.461-5.462A5.468 5.468 0 0125 38.138zm0-9.571a4.11 4.11 0 100 8.22 4.11 4.11 0 000-8.22zm2.345-17.32a.675.675 0 01-.66-.821l1.757-7.973a.675.675 0 01.602-.528l6.694-.574a.678.678 0 01.114 1.352l-6.197.527-1.65 7.487a.676.676 0 01-.66.53z" fill="#FE0002"></path>
  </symbol>
  <symbol fill="none" xmlns="http://www.w3.org/2000/svg" viewBox="0 0 50 50" id="glasses">
    <g clip-path="url(#clip0)" fill="#FE0002">
      <path d="M25.439 23.665H.877a.878.878 0 00-.877.878v11.403c0 .392.26.736.636.843l12.281 3.51a.877.877 0 00.482 0l12.28-3.51a.877.877 0 00.637-.843V24.543a.878.878 0 00-.877-.878zm-.878 11.62l-11.403 3.258-11.404-3.259V25.42h22.808v9.864z"></path>
      <path d="M24.561 23.665v12.929l12.272 3.776L50 36.608V23.665H24.561zm23.685 11.62L36.85 38.54l-10.535-3.242V25.42h21.93v9.864zM5.883 9.887a.877.877 0 00-1.24 0L.257 14.273a.877.877 0 00-.257.62v9.65a.877.877 0 001.754 0v-9.286l4.13-4.13a.877.877 0 000-1.24z"></path>
      <path d="M49.743 14.273l-4.387-4.386a.877.877 0 10-1.24 1.24l4.13 4.13v9.286a.877.877 0 001.754 0v-9.65a.877.877 0 00-.257-.62z"></path>
    </g>
    <defs>
      <clipPath id="clip0">
        <path fill="#fff" d="M0 0h50v50H0z"></path>
      </clipPath>
    </defs>
  </symbol>
</svg>