<svg width="0" height="0" class="hidden">
  <symbol fill="none" xmlns="http://www.w3.org/2000/svg" viewBox="0 0 24 24" id="mail">
    <path d="M20 4H4c-1.1 0-1.99.9-1.99 2L2 18c0 1.1.9 2 2 2h16c1.1 0 2-.9 2-2V6c0-1.1-.9-2-2-2zm0 14H4V8l8 5 8-5v10zm-8-7L4 6h16l-8 5z" fill="#FE0002"></path>
  </symbol>
  <symbol fill="none" xmlns="http://www.w3.org/2000/svg" viewBox="0 0 24 24" id="time">
    <path d="M11.99 2C6.47 2 2 6.48 2 12s4.47 10 9.99 10C17.52 22 22 17.52 22 12S17.52 2 11.99 2zM12 20c-4.42 0-8-3.58-8-8s3.58-8 8-8 8 3.58 8 8-3.58 8-8 8z" fill="#FE0002"></path>
    <path d="M12.5 7H11v6l5.25 3.15.75-1.23-4.5-2.67V7z" fill="#FE0002"></path>
  </symbol>
  <symbol fill="none" xmlns="http://www.w3.org/2000/svg" viewBox="0 0 24 24" id="place">
    <path d="M12 12c-1.1 0-2-.9-2-2s.9-2 2-2 2 .9 2 2-.9 2-2 2zm6-1.8C18 6.57 15.35 4 12 4s-6 2.57-6 6.2c0 2.34 1.95 5.44 6 9.14 4.05-3.7 6-6.8 6-9.14zM12 2c4.2 0 8 3.22 8 8.2 0 3.32-2.67 7.25-8 11.8-5.33-4.55-8-8.48-8-11.8C4 5.22 7.8 2 12 2z" fill="#FE0002"></path>
  </symbol>
  <symbol fill="none" xmlns="http://www.w3.org/2000/svg" viewBox="0 0 24 24" id="talk">
    <path d="M15 12h2c0-2.76-2.24-5-5-5v2c1.66 0 3 1.34 3 3zm4 0h2a9 9 0 00-9-9v2c3.87 0 7 3.13 7 7zm1 3.5c-1.25 0-2.45-.2-3.57-.57-.1-.03-.21-.05-.31-.05-.26 0-.51.1-.71.29l-2.2 2.2a15.045 15.045 0 01-6.59-6.59l2.2-2.21a.96.96 0 00.25-1A11.36 11.36 0 018.5 4c0-.55-.45-1-1-1H4c-.55 0-1 .45-1 1 0 9.39 7.61 17 17 17 .55 0 1-.45 1-1v-3.5c0-.55-.45-1-1-1zM5.03 5h1.5c.07.88.22 1.75.45 2.58l-1.2 1.21c-.4-1.21-.66-2.47-.75-3.79zM19 18.97c-1.32-.09-2.6-.35-3.8-.76l1.2-1.2c.85.24 1.72.39 2.6.45v1.51z" fill="#FE0002"></path>
  </symbol>
  <symbol fill="none" xmlns="http://www.w3.org/2000/svg" viewBox="0 0 30 30" id="vk">
    <path d="M28.38 7.219c.19-.703 0-1.219-.891-1.219h-2.955c-.752 0-1.095.446-1.284.936 0 0-1.502 4.112-3.631 6.778-.687.776-1.001 1.021-1.376 1.021-.187 0-.46-.245-.46-.948V7.22c0-.844-.216-1.219-.843-1.219h-4.643c-.469 0-.752.39-.752.762 0 .799 1.065.983 1.174 3.234v4.881c0 1.07-.171 1.265-.549 1.265-1 0-3.437-4.127-4.883-8.852-.281-.918-.566-1.288-1.32-1.288H3.013c-.845 0-1.013.446-1.013.936 0 .88 1.001 5.235 4.663 10.996C9.105 21.868 12.543 24 15.673 24c1.877 0 2.11-.473 2.11-1.29v-2.973c0-.947.178-1.138.773-1.138.436 0 1.188.248 2.941 2.143 2.002 2.248 2.334 3.256 3.459 3.256h2.953c.844 0 1.266-.473 1.023-1.408-.265-.93-1.222-2.283-2.491-3.885-.69-.913-1.721-1.896-2.035-2.388-.438-.633-.311-.913 0-1.476.001.002 3.6-5.688 3.975-7.622z" fill="#FE0002"></path>
  </symbol>
  <symbol fill="none" xmlns="http://www.w3.org/2000/svg" viewBox="0 0 30 30" id="fb">
    <path d="M16.746 26.246V16.001h3.457l.513-4.011h-3.97V9.435c0-1.158.323-1.95 1.984-1.95h2.105V3.909a27.92 27.92 0 00-3.084-.159c-3.055 0-5.152 1.865-5.152 5.289v2.944H9.165v4.01h3.441v10.253h4.14z" fill="#FE0002"></path>
  </symbol>
  <symbol fill="none" xmlns="http://www.w3.org/2000/svg" viewBox="0 0 30 30" id="inst">
    <path d="M15 8.991A6 6 0 008.991 15 6 6 0 0015 21.009a6 6 0 006.009-6.01A6 6 0 0015 8.992zm0 9.914A3.914 3.914 0 0111.095 15 3.914 3.914 0 0115 11.095 3.914 3.914 0 0118.905 15 3.914 3.914 0 0115 18.905zm6.255-11.56c-.776 0-1.403.627-1.403 1.403s.627 1.403 1.403 1.403a1.4 1.4 0 001.297-1.94 1.402 1.402 0 00-1.297-.866zM26.713 15c0-1.617.015-3.22-.076-4.834-.091-1.875-.519-3.54-1.89-4.91-1.374-1.374-3.035-1.8-4.91-1.89-1.617-.09-3.22-.076-4.834-.076-1.617 0-3.22-.015-4.834.076-1.875.09-3.54.519-4.91 1.89-1.374 1.374-1.799 3.035-1.89 4.91-.09 1.617-.076 3.22-.076 4.834 0 1.614-.015 3.22.076 4.834.091 1.875.519 3.539 1.89 4.91 1.374 1.374 3.035 1.799 4.91 1.89 1.617.09 3.22.076 4.834.076 1.617 0 3.22.014 4.834-.076 1.875-.091 3.539-.519 4.91-1.89 1.374-1.374 1.799-3.035 1.89-4.91.093-1.614.076-3.217.076-4.834zm-2.578 6.908a3.724 3.724 0 01-.885 1.342c-.413.413-.809.67-1.342.885-1.54.612-5.2.474-6.908.474-1.708 0-5.37.138-6.911-.471a3.723 3.723 0 01-1.342-.885 3.748 3.748 0 01-.885-1.342c-.609-1.544-.471-5.203-.471-6.911 0-1.708-.138-5.37.471-6.911.214-.533.472-.932.885-1.342.413-.41.809-.67 1.342-.885 1.54-.61 5.203-.471 6.911-.471 1.708 0 5.37-.138 6.911.471.533.214.932.472 1.342.885.413.413.67.809.885 1.342.61 1.54.471 5.203.471 6.91 0 1.709.138 5.368-.474 6.91z" fill="#FE0002"></path>
  </symbol>
  <symbol fill="none" xmlns="http://www.w3.org/2000/svg" viewBox="0 0 30 30" id="ok">
    <path d="M12.517 2A5.814 5.814 0 006.71 7.807a5.813 5.813 0 005.808 5.806 5.812 5.812 0 005.807-5.806A5.813 5.813 0 0012.517 2zm0 3.402a2.407 2.407 0 012.403 2.405 2.406 2.406 0 01-2.403 2.403 2.407 2.407 0 01-2.404-2.403 2.408 2.408 0 012.404-2.405zM7.73 13.81a1.702 1.702 0 00-.934 3.143c1.05.66 2.19 1.127 3.37 1.396L6.92 21.596a1.701 1.701 0 102.407 2.405l3.189-3.19 3.191 3.19a1.7 1.7 0 102.406-2.405l-3.247-3.246a10.88 10.88 0 003.371-1.397 1.702 1.702 0 10-1.812-2.88 7.375 7.375 0 01-7.818 0 1.693 1.693 0 00-.878-.263z" fill="#FE0002"></path>
  </symbol>
</svg>